<?xml version="1.0" standalone="no"?>
<!DOCTYPE svg PUBLIC "-//W3C//DTD SVG 20010904//EN"
 "http://www.w3.org/TR/2001/REC-SVG-20010904/DTD/svg10.dtd">
<svg version="1.0" xmlns="http://www.w3.org/2000/svg"
 width="36.000000pt" height="36.000000pt" viewBox="0 0 36.000000 36.000000"
 preserveAspectRatio="xMidYMid meet">

<g transform="translate(0.000000,36.000000) scale(0.100000,-0.100000)"
fill="#000000" stroke="none">
<path d="M145 340 c-16 -11 -49 -22 -72 -26 l-43 -6 0 -85 c0 -64 5 -93 20
-123 24 -47 89 -93 130 -93 41 0 106 46 130 93 15 30 20 59 20 123 l0 85 -43
6 c-23 4 -57 15 -75 26 -18 11 -33 20 -35 19 -1 0 -15 -9 -32 -19z m70 -20
c22 -11 54 -20 72 -20 l33 0 0 -63 c0 -34 -4 -78 -10 -96 -18 -64 -99 -128
-146 -117 -39 10 -103 74 -114 114 -5 21 -10 65 -10 100 l0 62 33 0 c24 0 99
28 102 39 1 0 18 -8 40 -19z"/>
</g>
</svg>
